Coordinates
version=1
nRows=40
nColumns=30
inDegrees=yes

Units are S.I. units (second, meters, Newtons, ...)
Angles are in degrees.

endheader
time	floatyaw	floatroll	floatpitch	floatx	floaty	floatz	pro_sup_l	deviation_l	flexion_l	cmc_flexion_l	cmc_abduction_l	mp_flexion_l	ip_flexion_l	2mcp_flexion_l	2mcp_abduction_l	2pm_flexion_l	2md_flexion_l	3mcp_flexion_l	3mcp_abduction_l	3pm_flexion_l	3md_flexion_l	4mcp_flexion_l	4mcp_abduction_l	4pm_flexion_l	4md_flexion_l	5mcp_flexion_l	5mcp_abduction_l	5pm_flexion_l	5md_flexion_l
-0.495000	0.705439	-1.708008	98.521615	-0.102947	-0.191241	-0.023653	88.883739	0.929210	-1.344471	17.651220	2.675048	-22.040186	-35.209493	36.490502	7.957310	46.848800	32.686527	22.933293	4.706024	46.442684	31.298124	13.768832	-4.672954	59.904688	40.662512	10.646122	-8.324652	58.415048	40.375772
-0.485000	0.705439	-1.708008	98.521615	-0.102577	-0.191031	-0.023437	88.883488	0.995186	-1.346486	17.655398	2.735431	-22.037248	-35.207273	36.470522	7.925737	46.844247	32.678714	22.953509	4.708170	46.429469	31.288440	13.789911	-4.669988	59.896606	40.650637	10.663273	-8.302613	58.384667	40.360242
-0.475000	0.705439	-1.708008	98.521615	-0.102187	-0.190828	-0.023217	88.874171	1.066606	-1.348020	17.649158	2.798823	-22.030705	-35.202969	36.465491	7.897640	46.847346	32.672777	22.963893	4.712331	46.435027	31.286910	13.805021	-4.668257	59.907526	40.647158	10.680367	-8.278631	58.369580	40.355766
-0.465000	0.705439	-1.708008	98.521615	-0.101785	-0.190632	-0.022996	88.850910	1.133968	-1.347171	17.637455	2.870035	-22.019232	-35.197013	36.477059	7.873739	46.856689	32.668314	22.967089	4.717031	46.460853	31.296783	13.814628	-4.666951	59.934325	40.653952	10.702123	-8.254740	58.373226	40.361862
-0.455000	0.705439	-1.708008	98.521615	-0.101373	-0.190442	-0.022774	88.811126	1.188529	-1.343525	17.626880	2.954576	-22.003771	-35.192016	36.502802	7.853365	46.867175	32.664452	22.968873	4.720420	46.503051	31.318377	13.821417	-4.664808	59.970351	40.671304	10.732589	-8.233348	58.395783	40.375163
-0.445000	0.705439	-1.708008	98.521615	-0.100956	-0.190257	-0.022550	88.757666	1.224964	-1.337578	17.622058	3.056761	-21.987668	-35.192294	36.535961	7.834919	46.872823	32.660867	22.975516	4.721055	46.554266	31.349222	13.830177	-4.660845	60.009308	40.697884	10.773974	-8.216268	58.433809	40.390300
-0.435000	0.705439	-1.708008	98.521615	-0.100533	-0.190073	-0.022316	88.699668	1.242721	-1.329324	17.623499	3.177433	-21.975451	-35.202267	36.566335	7.816973	46.870722	32.658618	22.990555	4.718705	46.607887	31.385518	13.846874	-4.655236	60.049112	40.731259	10.826654	-8.204213	58.481318	40.401744
-0.425000	0.705439	-1.708008	98.521615	-0.100103	-0.189889	-0.022069	88.650175	1.245472	-1.317009	17.627869	3.311998	-21.970609	-35.224133	36.583036	7.799235	46.863821	32.660191	23.013226	4.714734	46.662113	31.424189	13.877402	-4.649793	60.092912	40.768749	10.889836	-8.196661	58.532465	40.406079
-0.415000	0.705439	-1.708008	98.521615	-0.099666	-0.189708	-0.021808	88.621662	1.238941	-1.296757	17.630030	3.450409	-21.973540	-35.255845	36.578722	7.782642	46.860951	32.668789	23.039894	4.711689	46.721029	31.464532	13.926529	-4.647600	60.146166	40.808289	10.962562	-8.191926	58.584295	40.403507
-0.405000	0.705439	-1.708008	98.521615	-0.099220	-0.189532	-0.021535	88.622212	1.228156	-1.263053	17.625502	3.580275	-21.981038	-35.290738	36.553278	7.768547	46.873974	32.687392	23.067558	4.712162	46.791717	31.508737	13.997308	-4.651757	60.211677	40.848883	11.045372	-8.187509	58.637359	40.397356
-0.395000	0.705439	-1.708008	98.521615	-0.098768	-0.189360	-0.021255	88.654506	1.215308	-1.209624	17.612513	3.692108	-21.987846	-35.319686	36.514380	7.757611	46.913262	32.718083	23.096870	4.717438	46.879096	31.561012	14.090776	-4.663736	60.286219	40.890469	11.142466	-8.180947	58.693613	40.391653
-0.385000	0.705439	-1.708008	98.521615	-0.098310	-0.189185	-0.020971	88.717527	1.199119	-1.130312	17.593350	3.783546	-21.989387	-35.335185	36.473983	7.749175	46.983302	32.761718	23.132550	4.726528	46.981669	31.625574	14.205407	-4.682105	60.361543	40.933400	11.262630	-8.171080	58.753478	40.388392
-0.375000	0.705439	-1.708008	98.521615	-0.097842	-0.188990	-0.020677	88.808742	1.175928	-1.019768	17.574657	3.859750	-21.984051	-35.335259	36.442443	7.741449	47.080146	32.817681	23.180938	4.736042	47.090821	31.704231	14.336090	-4.702366	60.429505	40.977932	11.416872	-8.159118	58.814343	40.386377
-0.365000	0.705439	-1.708008	98.521615	-0.097354	-0.188755	-0.020364	88.924506	1.142032	-0.874064	17.566004	3.930086	-21.973775	-35.324726	36.423669	7.732439	47.191947	32.883714	23.246146	4.741125	47.194338	31.794793	14.473608	-4.718304	60.487939	41.023993	11.613142	-8.148724	58.871051	40.382141
-0.355000	0.705439	-1.708008	98.521615	-0.096835	-0.188461	-0.020018	89.058505	1.096376	-0.691580	17.576499	4.003847	-21.962636	-35.312738	36.414285	7.721274	47.302938	32.956150	23.326997	4.737329	47.282533	31.891472	14.606392	-4.724599	60.543106	41.071332	11.851531	-8.144519	58.917328	40.371961
-0.345000	0.705439	-1.708008	98.521615	-0.096269	-0.188093	-0.019630	89.200253	1.042603	-0.474360	17.610499	4.087783	-21.954310	-35.307762	36.407386	7.709162	47.399624	33.030850	23.416828	4.722612	47.354012	31.987498	14.725165	-4.719505	60.606753	41.119976	12.123740	-8.149147	58.947622	40.353859
-0.335000	0.705439	-1.708008	98.521615	-0.095639	-0.187643	-0.019190	89.335979	0.989657	-0.229491	17.664454	4.186236	-21.949949	-35.312934	36.398350	7.698987	47.476138	33.104466	23.507164	4.698332	47.417966	32.078531	14.828708	-4.706016	60.689530	41.170687	12.417239	-8.160070	58.959578	40.328891
-0.325000	0.705439	-1.708008	98.521615	-0.094923	-0.187100	-0.018690	89.452280	0.950608	0.030642	17.726819	4.302711	-21.947867	-35.324700	36.388286	7.693039	47.535521	33.175217	23.593837	4.668595	47.491233	32.164535	14.927354	-4.690602	60.794949	41.224930	12.720850	-8.168181	58.956824	40.301220
-0.315000	0.705439	-1.708008	98.521615	-0.094091	-0.186449	-0.018117	89.540567	0.940052	0.290310	17.781703	4.441148	-21.945253	-35.335785	36.381857	7.689694	47.586447	33.242796	23.681861	4.638371	47.590948	32.248526	15.041258	-4.679982	60.917583	41.284018	13.027834	-8.160067	58.950361	40.276632
-0.305000	0.705439	-1.708008	98.521615	-0.093105	-0.185670	-0.017449	89.599236	0.971092	0.534419	17.815146	4.605817	-21.940608	-35.340665	36.380428	7.681141	47.638432	33.307841	23.785481	4.611471	47.726019	32.332741	15.192883	-4.677493	61.045979	41.347622	13.335234	-8.123822	58.956612	40.259850
-0.295000	0.705439	-1.708008	98.521615	-0.091922	-0.184733	-0.016658	89.631616	1.053036	0.752730	17.821439	4.799893	-21.934862	-35.339720	36.375710	7.654214	47.698913	33.371572	23.922560	4.589359	47.891189	32.414547	15.396659	-4.680966	61.167090	41.412191	13.641206	-8.055545	58.991491	40.251822
-0.285000	0.705439	-1.708008	98.521615	-0.090498	-0.183613	-0.015718	89.640554	1.190479	0.941944	17.806799	5.024001	-21.930042	-35.338910	36.349553	7.594549	47.772557	33.435497	24.106062	4.571176	48.065802	32.484591	15.651385	-4.683374	61.267942	41.470044	13.942891	-7.962205	59.061905	40.248263
-0.275000	0.705439	-1.708008	98.521615	-0.088789	-0.182291	-0.014609	89.623308	1.383612	1.104389	17.788901	5.276638	-21.926474	-35.345168	36.281135	7.491894	47.860842	33.500770	24.337488	4.554682	48.217608	32.528382	15.940238	-4.676067	61.333475	41.509863	14.236273	-7.858342	59.157838	40.239929
-0.265000	0.705439	-1.708008	98.521615	-0.086761	-0.180764	-0.013321	89.570915	1.628978	1.244533	17.792419	5.557843	-21.921095	-35.361272	36.156710	7.343703	47.961197	33.567239	24.606092	4.537444	48.311015	32.530835	16.238803	-4.652977	61.344053	41.519098	14.518200	-7.758520	59.248670	40.214143
-0.255000	0.705439	-1.708008	98.521615	-0.084386	-0.179044	-0.011855	89.473657	1.920030	1.366186	17.842027	5.875361	-21.908723	-35.384345	35.974207	7.155695	48.067330	33.632860	24.893899	4.517803	48.318318	32.482143	16.526380	-4.613573	61.277468	41.487844	14.789915	-7.670958	59.286449	40.156861
-0.245000	0.705439	-1.708008	98.521615	-0.081648	-0.177149	-0.010217	89.330303	2.247771	1.472746	17.954870	6.249834	-21.885542	-35.408790	35.738428	6.940032	48.171951	33.693934	25.182402	4.495547	48.230564	32.382718	16.793784	-4.563185	61.116620	41.412756	15.060348	-7.596687	59.216963	40.055277
-0.235000	0.705439	-1.708008	98.521615	-0.078536	-0.175100	-0.008407	89.156137	2.602397	1.570286	18.134847	6.714316	-21.851806	-35.430566	35.449922	6.712076	48.270326	33.745978	25.455975	4.472391	48.063103	32.245023	17.043254	-4.510728	60.859030	41.299214	15.346331	-7.533702	58.996990	39.901593
-0.225000	0.705439	-1.708008	98.521615	-0.075047	-0.172909	-0.006419	88.984501	2.975820	1.670572	18.371050	7.305389	-21.811193	-35.449099	35.096414	6.486276	48.361881	33.784898	25.700761	4.451976	47.852101	32.091050	17.281526	-4.465039	60.522324	41.160818	15.667731	-7.481550	58.613330	39.697935
-0.215000	0.705439	-1.708008	98.521615	-0.071183	-0.170585	-0.004241	88.858808	3.363154	1.790347	18.641643	8.047991	-21.767077	-35.466022	34.655510	6.272190	48.449092	33.808504	25.902937	4.438937	47.642686	31.946140	17.512201	-4.431406	60.142327	41.016672	16.039356	-7.442245	58.096964	39.460637
-0.205000	0.705439	-1.708008	98.521615	-0.066955	-0.168144	-0.001862	88.816289	3.761188	1.945272	18.921915	8.941146	-21.718728	-35.483143	34.110856	6.072497	48.535681	33.818270	26.051852	4.437095	47.474394	31.831932	17.734811	-4.409733	59.764954	40.887928	16.465663	-7.417191	57.525242	39.220808
-0.195000	0.705439	-1.708008	98.521615	-0.062383	-0.165618	0.000718	88.869974	4.164325	2.141105	19.192645	9.953243	-21.660723	-35.502296	33.474200	5.884052	48.626039	33.820325	26.149400	4.447717	47.370955	31.761637	17.953529	-4.395085	59.436007	40.794827	16.943794	-7.403104	57.007421	39.018559
-0.185000	0.705439	-1.708008	98.521615	-0.057499	-0.163056	0.003487	88.998608	4.561278	2.368260	19.444549	11.031235	-21.586487	-35.527373	32.798730	5.700797	48.725015	33.824013	26.220051	4.469031	47.338164	31.739174	18.189925	-4.380251	59.192578	40.754465	17.474111	-7.390374	56.654327	38.890946
-0.175000	0.705439	-1.708008	98.521615	-0.052337	-0.160508	0.006427	89.151605	4.936173	2.605168	19.677513	12.120054	-21.494089	-35.566458	32.171150	5.516253	48.835788	33.837543	26.312765	4.497319	47.368694	31.761294	18.488335	-4.358925	59.057692	40.778793	18.070303	-7.365565	56.540794	38.857573
-0.165000	0.705439	-1.708008	98.521615	-0.046921	-0.158011	0.009521	89.267813	5.275071	2.829594	19.896754	13.182261	-21.390878	-35.631949	31.682947	5.324868	48.956648	33.863052	26.490154	4.528720	47.450446	31.820920	18.905798	-4.328032	59.038929	40.872949	18.760497	-7.316966	56.676761	38.910818
-0.155000	0.705439	-1.708008	98.521615	-0.041266	-0.155573	0.012759	89.298012	5.575323	3.029564	20.108767	14.208220	-21.293906	-35.737949	31.396676	5.123624	49.081729	33.895291	26.808766	4.560568	47.575812	31.910824	19.489876	-4.288638	59.132093	41.035221	19.578098	-7.240185	57.003477	39.017141
-0.145000	0.705439	-1.708008	98.521615	-0.035376	-0.153183	0.016135	89.219047	5.852743	3.204015	20.317954	15.213682	-21.225035	-35.895837	31.327613	4.915114	49.209055	33.926252	27.300200	4.591752	47.749854	32.027746	20.257526	-4.245706	59.329569	41.259995	20.549514	-7.140602	57.420743	39.130642
-0.135000	0.705439	-1.708008	98.521615	-0.029257	-0.150826	0.019640	89.034164	6.141784	3.350798	20.523832	16.229001	-21.202550	-36.109955	31.449918	4.710605	49.351075	33.953343	27.962005	4.622393	47.993848	32.176434	21.188394	-4.207174	59.628679	41.542937	21.687153	-7.030937	57.833665	39.212810
-0.125000	0.705439	-1.708008	98.521615	-0.022929	-0.148514	0.023248	88.763938	6.486665	3.450601	20.720117	17.286950	-21.233261	-36.375649	31.719572	4.529589	49.537010	33.985405	28.761799	4.653359	48.339539	32.371460	22.236759	-4.182641	60.032538	41.885110	22.989707	-6.924310	58.194831	39.248181
-0.115000	0.705439	-1.708008	98.521615	-0.016432	-0.146286	0.026917	88.436723	6.925618	3.460642	20.897930	18.413572	-21.308834	-36.681044	32.097447	4.393816	49.800543	34.042295	29.651394	4.685779	48.812814	32.634029	23.354399	-4.181782	60.540356	42.292613	24.445354	-6.825873	58.519956	39.247701
-0.105000	0.705439	-1.708008	98.521615	-0.009830	-0.144207	0.030588	88.083916	7.473938	3.326942	21.053204	19.622969	-21.407897	-37.012141	32.559267	4.318046	50.157894	34.148301	30.582973	4.720398	49.412692	32.983068	24.509786	-4.212443	61.133929	42.771763	26.033260	-6.728176	58.870598	39.238543
